  0
SECTION
  2
HEADER
  9
$ACADVER
  1
AC1009
  9
$INSBASE
 10
0.0
 20
0.0
 30
0.0
  9
$EXTMIN
 10
-0.0000000000838156
 20
-0.1000000000040764
 30
-0.0000003826704289
  9
$EXTMAX
 10
15.4000000005401692
 20
24.9000000659871183
 30
0.0
  9
$LIMMIN
 10
0.0
 20
0.0
  9
$LIMMAX
 10
12.0
 20
9.0
  9
$ORTHOMODE
 70
     1
  9
$REGENMODE
 70
     1
  9
$FILLMODE
 70
     1
  9
$QTEXTMODE
 70
     0
  9
$MIRRTEXT
 70
     0
  9
$DRAGMODE
 70
     2
  9
$LTSCALE
 40
1.0
  9
$OSMODE
 70
   495
  9
$ATTMODE
 70
     1
  9
$TEXTSIZE
 40
0.2
  9
$TRACEWID
 40
0.05
  9
$TEXTSTYLE
  7
STANDARD
  9
$CLAYER
  8
0
  9
$CELTYPE
  6
BYLAYER
  9
$CECOLOR
 62
     1
  9
$DIMSCALE
 40
1.0
  9
$DIMASZ
 40
0.18
  9
$DIMEXO
 40
0.0625
  9
$DIMDLI
 40
0.38
  9
$DIMRND
 40
0.0
  9
$DIMDLE
 40
0.0
  9
$DIMEXE
 40
0.18
  9
$DIMTP
 40
0.0
  9
$DIMTM
 40
0.0
  9
$DIMTXT
 40
0.18
  9
$DIMCEN
 40
0.09
  9
$DIMTSZ
 40
0.0
  9
$DIMTOL
 70
     0
  9
$DIMLIM
 70
     0
  9
$DIMTIH
 70
     1
  9
$DIMTOH
 70
     1
  9
$DIMSE1
 70
     0
  9
$DIMSE2
 70
     0
  9
$DIMTAD
 70
     0
  9
$DIMZIN
 70
     0
  9
$DIMBLK
  1

  9
$DIMASO
 70
     1
  9
$DIMSHO
 70
     1
  9
$DIMPOST
  1

  9
$DIMAPOST
  1

  9
$DIMALT
 70
     0
  9
$DIMALTD
 70
     2
  9
$DIMALTF
 40
25.3999999999999986
  9
$DIMLFAC
 40
1.0
  9
$DIMTOFL
 70
     0
  9
$DIMTVP
 40
0.0
  9
$DIMTIX
 70
     0
  9
$DIMSOXD
 70
     0
  9
$DIMSAH
 70
     0
  9
$DIMBLK1
  1

  9
$DIMBLK2
  1

  9
$DIMSTYLE
  2
STANDARD
  9
$DIMCLRD
 70
     0
  9
$DIMCLRE
 70
     0
  9
$DIMCLRT
 70
     0
  9
$DIMTFAC
 40
1.0
  9
$DIMGAP
 40
0.09
  9
$LUNITS
 70
     2
  9
$LUPREC
 70
     4
  9
$SKETCHINC
 40
0.1
  9
$FILLETRAD
 40
0.0
  9
$AUNITS
 70
     0
  9
$AUPREC
 70
     0
  9
$MENU
  1
.
  9
$ELEVATION
 40
0.0
  9
$PELEVATION
 40
0.0
  9
$THICKNESS
 40
0.0
  9
$LIMCHECK
 70
     0
  9
$BLIPMODE
 70
     0
  9
$CHAMFERA
 40
0.0
  9
$CHAMFERB
 40
0.0
  9
$SKPOLY
 70
     0
  9
$TDCREATE
 40
2460594.4180902778171003
  9
$TDUPDATE
 40
2460598.447384259197861
  9
$TDINDWG
 40
0.1453819444
  9
$TDUSRTIMER
 40
0.1453819444
  9
$USRTIMER
 70
     1
  9
$ANGBASE
 50
0.0
  9
$ANGDIR
 70
     0
  9
$PDMODE
 70
     0
  9
$PDSIZE
 40
0.0
  9
$PLINEWID
 40
0.0
  9
$COORDS
 70
     1
  9
$SPLFRAME
 70
     0
  9
$SPLINETYPE
 70
     6
  9
$SPLINESEGS
 70
     8
  9
$ATTDIA
 70
     1
  9
$ATTREQ
 70
     1
  9
$HANDLING
 70
     1
  9
$HANDSEED
  5
1021
  9
$SURFTAB1
 70
     6
  9
$SURFTAB2
 70
     6
  9
$SURFTYPE
 70
     6
  9
$SURFU
 70
     6
  9
$SURFV
 70
     6
  9
$UCSNAME
  2

  9
$UCSORG
 10
0.0
 20
0.0
 30
0.0
  9
$UCSXDIR
 10
1.0
 20
0.0
 30
0.0
  9
$UCSYDIR
 10
0.0
 20
1.0
 30
0.0
  9
$PUCSNAME
  2

  9
$PUCSORG
 10
0.0
 20
0.0
 30
0.0
  9
$PUCSXDIR
 10
1.0
 20
0.0
 30
0.0
  9
$PUCSYDIR
 10
0.0
 20
1.0
 30
0.0
  9
$USERI1
 70
     0
  9
$USERI2
 70
     0
  9
$USERI3
 70
     0
  9
$USERI4
 70
     0
  9
$USERI5
 70
     0
  9
$USERR1
 40
0.0
  9
$USERR2
 40
0.0
  9
$USERR3
 40
0.0
  9
$USERR4
 40
0.0
  9
$USERR5
 40
0.0
  9
$WORLDVIEW
 70
     1
  9
$SHADEDGE
 70
     3
  9
$SHADEDIF
 70
    70
  9
$TILEMODE
 70
     1
  9
$MAXACTVP
 70
    64
  9
$PLIMCHECK
 70
     0
  9
$PEXTMIN
 10
0.0
 20
0.0
 30
0.0
  9
$PEXTMAX
 10
0.0
 20
0.0
 30
0.0
  9
$PLIMMIN
 10
0.0
 20
0.0
  9
$PLIMMAX
 10
12.0
 20
9.0
  9
$UNITMODE
 70
     0
  9
$VISRETAIN
 70
     1
  9
$PLINEGEN
 70
     0
  9
$PSLTSCALE
 70
     1
  0
ENDSEC
  0
SECTION
  2
TABLES
  0
TABLE
  2
VPORT
 70
     1
  0
VPORT
  2
*ACTIVE
 70
     0
 10
0.0
 20
0.0
 11
1.0
 21
1.0
 12
8.4752646691041633
 22
-2.770480981572593
 13
0.0
 23
0.0
 14
0.5
 24
0.5
 15
0.5
 25
0.5
 16
-0.0000000000000169
 26
0.0
 36
76.4896636373867835
 17
7.700000000228175
 27
12.4000000329915192
 37
-0.0000001913352144
 40
32.9091455102802612
 41
1.915151515151515
 42
50.0
 43
0.0
 44
0.0
 50
0.0
 51
0.0
 71
     0
 72
  1000
 73
     1
 74
     3
 75
     0
 76
     1
 77
     0
 78
     0
  0
ENDTAB
  0
TABLE
  2
LTYPE
 70
     2
  0
LTYPE
  2
CONTINUOUS
 70
     0
  3
Solid line
 72
    65
 73
     0
 40
0.0
  0
ENDTAB
  0
TABLE
  2
LAYER
 70
     7
  0
LAYER
  2
0
 70
     0
 62
     7
  6
CONTINUOUS
  0
LAYER
  2
01
 70
     0
 62
     1
  6
CONTINUOUS
  0
ENDTAB
  0
TABLE
  2
STYLE
 70
     4
  0
STYLE
  2
STANDARD
 70
     0
 40
0.0
 41
1.0
 50
0.0
 71
     0
 42
0.2
  3
txt
  4

  0
ENDTAB
  0
TABLE
  2
VIEW
 70
     1
  0
ENDTAB
  0
TABLE
  2
UCS
 70
     0
  0
ENDTAB
  0
TABLE
  2
APPID
 70
    16
  0
APPID
  2
ACAD
 70
     0
  0
APPID
  2
ACADANNOTATIVE
 70
     0
  0
APPID
  2
ACADANNOPO
 70
     0
  0
APPID
  2
ACAD_DSTYLE_DIMJAG
 70
     0
  0
APPID
  2
ACAD_DSTYLE_DIMTALN
 70
     0
  0
APPID
  2
ACAD_MLEADERVER
 70
     0
  0
APPID
  2
ACAD_NAV_VCDISPLAY
 70
     0
  0
APPID
  2
ACAECLAYERSTANDARD
 70
     0
  0
APPID
  2
ACCMTRANSPARENCY
 70
     0
  0
APPID
  2
ACAD_PSEXT
 70
     0
  0
APPID
  2
ACAD_DSTYLE_DIMBREAK
 70
     0
  0
APPID
  2
GRADIENTCOLOR1ACI
 70
     0
  0
APPID
  2
GRADIENTCOLOR2ACI
 70
     0
  0
APPID
  2
REVIT
 70
     0
  0
APPID
  2
ACAD_EXEMPT_FROM_CAD_STANDARDS
 70
     0
  0
APPID
  2
ACAD_TC
 70
     0
  0
ENDTAB
  0
TABLE
  2
DIMSTYLE
 70
     4
  0
DIMSTYLE
  2
STANDARD
 70
     0
  3

  4

  5

  6

  7

 40
1.0
 41
0.18
 42
0.0625
 43
0.38
 44
0.18
 45
0.0
 46
0.0
 47
0.0
 48
0.0
140
0.18
141
0.09
142
0.0
143
25.3999999999999986
144
1.0
145
0.0
146
1.0
147
0.09
 71
     0
 72
     0
 73
     1
 74
     1
 75
     0
 76
     0
 77
     0
 78
     0
170
     0
171
     2
172
     0
173
     0
174
     0
175
     0
176
     0
177
     0
178
     0
  0
ENDTAB
  0
ENDSEC
  0
SECTION
  2
BLOCKS
  0
BLOCK
  8
0
  2
$MODEL_SPACE
 70
     0
 10
0.0
 20
0.0
 30
0.0
  3
$MODEL_SPACE
  1

  0
ENDBLK
  5
CB5
  8
0
  0
BLOCK
 67
     1
  8
0
  2
$PAPER_SPACE
 70
     0
 10
0.0
 20
0.0
 30
0.0
  3
$PAPER_SPACE
  1

  0
ENDBLK
  5
CB1
 67
     1
  8
0
  0
ENDSEC
  0
SECTION
  2
ENTITIES
  0
LINE
  5
DB4
  8
01
 62
     5
 10
14.6000000048894396
 20
19.1500000660156289
 30
0.0
 11
15.4000000005308593
 21
19.1500000659737317
 31
0.0
  0
LINE
  5
DB5
  8
01
 62
     5
 10
15.4000000005308593
 20
19.1500000659737317
 30
0.0
 11
15.3999999871384396
 21
15.7000000728643503
 31
0.0
  0
LINE
  5
DB6
  8
01
 62
     5
 10
15.3999999871384396
 20
15.7000000728643503
 30
0.0
 11
14.0499999353569098
 21
15.7000000710837799
 31
0.0
  0
LINE
  5
DBC
  8
01
 62
     5
 10
14.6000000048708198
 20
5.6500000775570527
 30
0.0
 11
15.4000000005401692
 21
5.650000077575676
 31
0.0
  0
LINE
  5
DBD
  8
01
 62
     5
 10
15.4000000005401692
 20
5.650000077575676
 30
0.0
 11
15.39999997440726
 21
9.1000002484570732
 31
0.0
  0
LINE
  5
DBE
  8
01
 62
     5
 10
15.39999997440726
 20
9.1000002484570732
 30
0.0
 11
14.0499999192822695
 21
9.1000001625815656
 31
0.0
  0
LINE
  5
DC4
  8
01
 62
     5
 10
-0.0000000000838156
 20
15.1250000597006906
 30
0.0
 11
-0.0000000000838156
 21
9.6750000000721812
 31
0.0
  0
LINE
  5
DC5
  8
01
 62
     5
 10
-0.0000000000838156
 20
9.6750000000721812
 30
0.0
 11
1.400000000391159
 21
9.6750000000721812
 31
0.0
  0
LINE
  5
DC7
  8
01
 62
     5
 10
1.400000000391159
 20
15.1250000597006906
 30
0.0
 11
-0.0000000000838156
 21
15.1250000597006906
 31
0.0
  0
LINE
  5
DC8
  8
01
 62
     5
 10
-0.0000000000838156
 20
9.6750000000721812
 30
0.0
 11
0.0
 21
6.3000017858948612
 31
0.0
  0
LINE
  5
DC9
  8
01
 62
     5
 10
0.0
 20
6.3000017858948612
 30
0.0
 11
1.5000000001676379
 21
6.3000017858948612
 31
0.0
  0
LINE
  5
DCB
  8
01
 62
     5
 10
1.399996999576693
 20
9.6750000000721812
 30
0.0
 11
-0.0000000000838156
 21
9.6750000000721812
 31
0.0
  0
LINE
  5
DCC
  8
01
 62
     5
 10
2.950000000083818
 20
0.6000000750599463
 30
0.0
 11
1.450000000093133
 21
0.6000000750465598
 31
0.0
  0
LINE
  5
DCD
  8
01
 62
     5
 10
1.450000000093133
 20
0.6000000750465598
 30
0.0
 11
1.4500000001117599
 21
3.7000000750535418
 31
0.0
  0
LINE
  5
DCE
  8
01
 62
     5
 10
1.4500000001117599
 20
3.7000000750535418
 30
0.0
 11
2.2500000000931299
 21
3.7000000750535418
 31
0.0
  0
LINE
  5
DCF
  8
01
 62
     5
 10
2.2500000000931299
 20
3.7000000750535418
 30
0.0
 11
2.2500000000931299
 21
3.550000075052961
 31
0.0
  0
LINE
  5
DD0
  8
01
 62
     5
 10
2.2500000000931299
 20
3.550000075052961
 30
0.0
 11
2.9500000000931328
 21
3.550000075052961
 31
0.0
  0
LINE
  5
DD1
  8
01
 62
     5
 10
2.9500000000931328
 20
3.550000075052961
 30
0.0
 11
2.950000000083818
 21
0.6000000750599463
 31
0.0
  0
LINE
  5
DD2
  8
01
 62
     5
 10
0.0000000000838227
 20
18.4999981846980504
 30
0.0
 11
0.0000000000838227
 21
15.1250000659906103
 31
0.0
  0
LINE
  5
DD3
  8
01
 62
     5
 10
0.0000000000838227
 20
15.1250000659906103
 30
0.0
 11
1.400000000391159
 21
15.12500005341019
 31
0.0
  0
LINE
  5
DD4
  8
01
 62
     5
 10
1.400000000391159
 20
15.12500005341019
 30
0.0
 11
1.400000000391159
 21
15.1250000597006906
 31
0.0
  0
LINE
  5
DD5
  8
01
 62
     5
 10
1.400000000391159
 20
15.1250000597006906
 30
0.0
 11
1.500004157023507
 21
15.1250000586715796
 31
0.0
  0
LINE
  5
DD7
  8
01
 62
     5
 10
1.5000000000838221
 20
18.4999983902345413
 30
0.0
 11
0.0000000000838227
 21
18.4999981846980504
 31
0.0
  0
LINE
  5
DD8
  8
01
 62
     5
 10
2.9500000000838251
 20
24.199999998302669
 30
0.0
 11
1.450000000093137
 21
24.1999999983160592
 31
0.0
  0
LINE
  5
DD9
  8
01
 62
     5
 10
1.450000000093137
 20
24.1999999983160592
 30
0.0
 11
1.450000000102448
 21
21.0999999983154716
 31
0.0
  0
LINE
  5
DDA
  8
01
 62
     5
 10
1.450000000102448
 20
21.0999999983154716
 30
0.0
 11
2.2500000000838218
 21
21.0999999983154716
 31
0.0
  0
LINE
  5
DDE
  8
01
 62
     5
 10
8.4500000000745104
 20
15.7000007012573803
 30
0.0
 11
8.4500000000745104
 21
13.7700007011782102
 31
0.0
  0
LINE
  5
DDF
  8
01
 62
     5
 10
8.4500000000745104
 20
13.7700007011782102
 30
0.0
 11
10.5500000025331993
 21
13.7700007011782102
 31
0.0
  0
LINE
  5
DE0
  8
01
 62
     5
 10
10.5500000025331993
 20
13.7700007011782102
 30
0.0
 11
10.5500000025331993
 21
15.7000007012573803
 31
0.0
  0
LINE
  5
DE1
  8
01
 62
     5
 10
10.5500000025331993
 20
15.7000007012573803
 30
0.0
 11
8.4500000000745104
 21
15.7000007012573803
 31
0.0
  0
LINE
  5
DE2
  8
01
 62
     5
 10
10.7000004072580506
 20
15.7000007765996301
 30
0.0
 11
10.7000004072580506
 21
14.8457356300321397
 31
0.0
  0
LINE
  5
DE3
  8
01
 62
     5
 10
10.7000004072580506
 20
14.8457356300321397
 30
0.0
 11
11.5000000025238904
 21
14.8457356300327206
 31
0.0
  0
LINE
  5
DE4
  8
01
 62
     5
 10
11.5000000025238904
 20
14.8457356300327206
 30
0.0
 11
11.5000000025238904
 21
15.7000007766002092
 31
0.0
  0
LINE
  5
DE5
  8
01
 62
     5
 10
11.5000000025238904
 20
15.7000007766002092
 30
0.0
 11
10.7000004072580506
 21
15.7000007765996301
 31
0.0
  0
LINE
  5
DEC
  8
01
 62
     5
 10
6.924999999431896
 20
15.12500005969836
 30
0.0
 11
6.924999999431896
 21
18.4250000038609087
 31
0.0
  0
LINE
  5
DED
  8
01
 62
     5
 10
6.924999999431896
 20
18.4250000038609087
 30
0.0
 11
8.3749999946262719
 21
18.4250000038591715
 31
0.0
  0
LINE
  5
DF4
  8
01
 62
     5
 10
8.3749999435157374
 20
15.7750000724440902
 30
0.0
 11
8.3749999946355871
 21
24.1999999983055787
 31
0.0
  0
LINE
  5
DF5
  8
01
 62
     5
 10
8.3749999946355871
 20
24.1999999983055787
 30
0.0
 11
7.6865517765376756
 21
24.1999999983049996
 31
0.0
  0
LINE
  5
DFB
  8
01
 62
     5
 10
7.6849999992456333
 20
24.1999999983049996
 30
0.0
 11
2.9499999994318991
 21
24.1999999982997593
 31
0.0
  0
LINE
  5
DFC
  8
01
 62
     5
 10
2.9499999994318991
 20
24.1999999982997593
 30
0.0
 11
2.9499999994318991
 21
21.2499999983055794
 31
0.0
  0
LINE
  5
DFD
  8
01
 62
     5
 10
2.9499999994318991
 20
21.2499999983055794
 30
0.0
 11
2.2499999994318989
 21
21.2499999983055794
 31
0.0
  0
LINE
  5
DFE
  8
01
 62
     5
 10
2.2499999994318989
 20
21.2499999983055794
 30
0.0
 11
2.2499999994318962
 21
18.4999997913418284
 31
0.0
  0
LINE
  5
DFF
  8
01
 62
     5
 10
2.2499999994318962
 20
18.4999997913418284
 30
0.0
 11
1.5000041905883741
 21
18.5000002053094796
 31
0.0
  0
LINE
  5
E00
  8
01
 62
     5
 10
1.5000041905883741
 20
18.5000002053094796
 30
0.0
 11
1.5000041563715809
 21
15.1250004736648407
 31
0.0
  0
LINE
  5
E01
  8
01
 62
     5
 10
1.5000041563715809
 20
15.1250004736648407
 30
0.0
 11
6.924999999430363
 21
15.1249973761241101
 31
0.0
  0
LINE
  5
E08
  8
01
 62
     5
 10
6.924999999431896
 20
9.6750000000681062
 30
0.0
 11
6.9249999994318934
 21
6.3750000559055531
 31
0.0
  0
LINE
  5
E09
  8
01
 62
     5
 10
6.9249999994318934
 20
6.3750000559055531
 30
0.0
 11
8.3749999946262719
 21
6.375000055907293
 31
0.0
  0
LINE
  5
E17
  8
01
 62
     5
 10
8.2999999776761921
 20
0.6000000614667133
 30
0.0
 11
2.9499999994318911
 21
0.6000000614667133
 31
0.0
  0
LINE
  5
E18
  8
01
 62
     5
 10
2.9499999994318911
 20
0.6000000614667133
 30
0.0
 11
2.9499999994318951
 21
3.5500000614608891
 31
0.0
  0
LINE
  5
E19
  8
01
 62
     5
 10
2.9499999994318951
 20
3.5500000614608891
 30
0.0
 11
2.2499999994318922
 21
3.5500000614608891
 31
0.0
  0
LINE
  5
E1A
  8
01
 62
     5
 10
2.2499999994318922
 20
3.5500000614608891
 30
0.0
 11
2.2499999994318962
 21
6.3000002684246326
 31
0.0
  0
LINE
  5
E1B
  8
01
 62
     5
 10
2.2499999994318962
 20
6.3000002684246326
 30
0.0
 11
1.5000041905883701
 21
6.2999998544569848
 31
0.0
  0
LINE
  5
E1C
  8
01
 62
     5
 10
1.5000041905883701
 20
6.2999998544569848
 30
0.0
 11
1.5000041563715809
 21
9.6749995861016256
 31
0.0
  0
LINE
  5
E23
  8
01
 62
     5
 10
1.5000041563715949
 20
9.6749977154129265
 30
0.0
 11
6.9249968876130898
 21
9.6749977704131762
 31
0.0
  0
LINE
  5
E24
  8
01
 62
     5
 10
6.9249968876130898
 20
9.6749977704131762
 30
0.0
 11
6.924999999431896
 21
15.12500005969836
 31
0.0
  0
LINE
  5
E2C
  8
01
 62
     5
 10
1.399996999576689
 20
15.1249978362594302
 30
0.0
 11
1.399996999576689
 21
9.6749977745581468
 31
0.0
  0
LINE
  5
E31
  8
01
 62
     5
 10
8.3750000009778915
 20
15.7750000724440902
 30
0.0
 11
11.6499999503418792
 21
15.7750000525725795
 31
0.0
  0
LINE
  5
E32
  8
01
 62
     5
 10
11.6499999503418792
 20
15.7750000525725795
 30
0.0
 11
11.6499999585933995
 21
15.70000044624088
 31
0.0
  0
LINE
  5
E33
  8
01
 62
     5
 10
11.6499999585933995
 20
15.70000044624088
 30
0.0
 11
14.0499999177176509
 21
15.7000002687471003
 31
0.0
  0
LINE
  5
E36
  8
01
 62
     5
 10
13.8999999822130693
 20
15.7000002798404594
 30
0.0
 11
13.8999999776762007
 21
19.0000000660849011
 31
0.0
  0
LINE
  5
E37
  8
01
 62
     5
 10
13.8999999776762007
 20
19.0000000660849011
 30
0.0
 11
14.5999999825283897
 21
19.00000006590097
 31
0.0
  0
LINE
  5
E38
  8
01
 62
     5
 10
14.5999999825283897
 20
19.00000006590097
 30
0.0
 11
14.5999999825283897
 21
21.9000000659725593
 31
0.0
  0
LINE
  5
E39
  8
01
 62
     5
 10
14.5999999825283897
 20
21.9000000659725593
 30
0.0
 11
12.0000000073481399
 21
21.9000000660069105
 31
0.0
  0
LINE
  5
E3A
  8
01
 62
     5
 10
12.0000000073481399
 20
21.9000000660069105
 30
0.0
 11
12.0000000073388193
 21
24.8000000659830384
 31
0.0
  0
LINE
  5
E3B
  8
01
 62
     5
 10
12.0000000073388193
 20
24.8000000659830384
 30
0.0
 11
8.299999977676201
 21
24.8000000659871205
 31
0.0
  0
LINE
  5
E3C
  8
01
 62
     5
 10
8.299999977676201
 20
24.8000000659871205
 30
0.0
 11
8.299999977676201
 21
24.2000000662624402
 31
0.0
  0
LINE
  5
E4A
  8
01
 62
     5
 10
13.8999999821099607
 20
9.0250011413424112
 30
0.0
 11
13.8999999776762007
 21
5.7999999998981382
 31
0.0
  0
LINE
  5
E4B
  8
01
 62
     5
 10
13.8999999776762007
 20
5.7999999998981382
 30
0.0
 11
14.5999999825283897
 21
5.8000000000820719
 31
0.0
  0
LINE
  5
E4C
  8
01
 62
     5
 10
14.5999999825283897
 20
5.8000000000820719
 30
0.0
 11
14.5999999825283897
 21
2.900000000010476
 31
0.0
  0
LINE
  5
E4D
  8
01
 62
     5
 10
14.5999999825283897
 20
2.900000000010476
 30
0.0
 11
12.0000000073481292
 21
2.899999999976135
 31
0.0
  0
LINE
  5
E4E
  8
01
 62
     5
 10
12.0000000073481292
 20
2.899999999976135
 30
0.0
 11
12.0000000073388193
 21
0.0000000000000009
 31
0.0
  0
LINE
  5
E4F
  8
01
 62
     5
 10
12.0000000073388193
 20
0.0000000000000009
 30
0.0
 11
8.2999999776761921
 21
-0.0000000000040741
 31
0.0
  0
LINE
  5
E50
  8
01
 62
     5
 10
8.2999999776761921
 20
-0.0000000000040741
 30
0.0
 11
8.2999999776761921
 21
0.5999999997206027
 31
0.0
  0
LINE
  5
E59
  8
01
 62
     5
 10
8.3750000009778915
 20
9.0249999935389535
 30
0.0
 11
14.0499999165719007
 21
9.0250011725044832
 31
0.0
  0
LINE
  5
E62
  8
01
 62
     5
 10
1.399996999576693
 20
9.6750000000721812
 30
0.0
 11
1.5000041563715769
 21
9.6750000010860866
 31
0.0
  0
LINE
  5
E63
  8
01
 62
     5
 10
11.6499997919611609
 20
11.9000008145935201
 30
0.0
 11
14.0499999788217291
 21
11.9000007715146197
 31
0.0
  0
LINE
  5
E64
  8
01
 62
     5
 10
14.0499999788217291
 20
11.9000007715146197
 30
0.0
 11
14.0499999785143892
 21
9.0250000231160232
 31
0.0
  0
LINE
  5
E6C
  8
01
 62
     5
 10
11.64999994776616
 20
15.70000044624088
 30
0.0
 11
11.6500000067614007
 21
11.9000007828662806
 31
0.0
  0
LINE
  5
E7F
  8
01
 62
     5
 10
8.3749999964237247
 20
0.5999999997211855
 30
0.0
 11
8.3749999946262719
 21
6.375000055907293
 31
0.0
  0
LINE
  5
E80
  8
01
 62
     5
 10
8.3749999946262719
 20
6.375000055907293
 30
0.0
 11
8.3749994440961171
 21
9.0249999935388381
 31
0.0
  0
LINE
  5
F84
  8
01
 62
     5
 10
8.2999999776761921
 20
0.6000000614667133
 30
0.0
 11
8.3749999964237247
 21
0.6000000614900567
 31
0.0
  0
ENDSEC
  0
EOF
